<?xml version="1.0" standalone="no"?>
<!DOCTYPE svg PUBLIC "-//W3C//DTD SVG 20010904//EN"
 "http://www.w3.org/TR/2001/REC-SVG-20010904/DTD/svg10.dtd">
<svg version="1.0" xmlns="http://www.w3.org/2000/svg"
 width="900.000000pt" height="900.000000pt" viewBox="0 0 900.000000 900.000000"
 preserveAspectRatio="xMidYMid meet">
<metadata>
Created by potrace 1.10, written by Peter Selinger 2001-2011
</metadata>
<g transform="translate(0.000000,900.000000) scale(0.100000,-0.100000)"
fill="#000000" stroke="none">
<path d="M6570 7256 c-41 -7 -95 -18 -120 -25 -131 -36 -162 -45 -235 -73 -70
-26 -105 -41 -165 -68 -45 -20 -182 -98 -230 -130 -118 -79 -155 -105 -165
-115 -5 -6 -32 -29 -59 -50 -27 -22 -80 -71 -117 -110 -38 -38 -78 -80 -90
-92 -18 -18 -19 -23 -6 -23 8 0 17 3 19 8 5 12 211 110 303 145 199 75 352 95
456 58 108 -38 157 -77 197 -159 23 -47 45 -164 40 -219 l-3 -42 -50 25 c-59
30 -71 43 -80 91 -9 49 -49 106 -97 138 -43 29 -130 55 -181 55 -53 0 -159
-26 -217 -52 -30 -14 -63 -28 -73 -32 -28 -9 -16 -27 29 -45 56 -22 102 -58
119 -91 13 -25 13 -29 -1 -34 -9 -3 -668 -6 -1465 -6 -1422 0 -1451 0 -1488
-20 -64 -32 -108 -92 -120 -163 -7 -40 -11 -272 -10 -642 0 -319 0 -601 0
-627 -1 -42 -7 -53 -67 -124 -99 -116 -304 -392 -304 -409 0 -2 -12 -21 -26
-42 -14 -21 -30 -47 -35 -58 -5 -11 -18 -33 -28 -50 -11 -16 -49 -91 -86 -165
-37 -74 -73 -148 -82 -163 -8 -15 -12 -35 -9 -44 5 -12 11 -8 30 18 12 19 44
66 71 104 26 39 61 86 76 106 16 20 29 40 29 44 0 4 19 31 43 59 23 28 67 83
97 121 29 39 77 94 104 124 173 182 178 187 189 156 3 -7 4 -40 2 -71 -4 -49
-10 -62 -46 -103 -23 -25 -47 -50 -53 -56 -6 -5 -38 -41 -71 -80 -33 -38 -62
-72 -65 -75 -46 -42 -181 -243 -266 -395 -41 -71 -151 -302 -184 -385 -41
-103 -49 -125 -78 -220 -98 -317 -77 -524 59 -596 58 -30 210 -54 344 -54 216
0 517 56 728 136 20 8 54 20 75 28 81 30 198 81 222 95 21 14 196 17 1570 22
850 3 1559 9 1575 13 82 20 142 42 163 61 l24 20 -1519 5 c-1340 4 -1518 7
-1518 20 0 13 180 15 1549 18 l1549 2 33 25 c44 34 61 88 44 141 -7 22 -17 45
-23 53 -6 7 -16 22 -22 32 -5 10 -44 73 -85 139 -41 66 -81 130 -88 143 -7 12
-21 34 -30 49 -9 15 -37 59 -62 98 -25 39 -52 82 -60 95 -77 122 -130 214
-130 224 0 7 8 25 18 39 11 15 23 38 28 52 4 14 11 336 14 715 l5 690 31 60
c33 63 41 84 108 263 18 48 41 138 61 232 50 250 57 410 25 605 -13 76 -16
123 -10 129 6 6 25 -7 52 -35 124 -128 175 -227 233 -455 21 -83 21 -350 -1
-448 -20 -94 -70 -267 -85 -298 -16 -33 -9 -42 14 -18 22 24 40 51 53 80 4 8
13 22 19 30 23 28 110 193 158 300 74 164 135 352 169 520 17 85 17 259 -1
335 -53 235 -214 407 -416 444 -74 14 -208 12 -305 -3z m-693 -1022 c5 -13 -8
-72 -36 -169 -5 -16 -19 -55 -31 -85 -12 -30 -27 -73 -34 -95 -35 -110 -209
-486 -290 -625 -14 -25 -29 -52 -33 -60 -35 -74 -218 -358 -303 -470 -31 -41
-66 -92 -78 -112 -13 -20 -26 -38 -30 -40 -4 -2 -30 -32 -57 -68 -54 -71 -128
-160 -214 -257 l-55 -63 -833 0 c-810 0 -835 1 -872 20 -22 11 -49 35 -60 54
l-22 34 -1 920 c-2 882 -1 921 17 948 22 34 48 55 90 71 22 9 385 12 1433 12
1258 1 1403 -1 1409 -15z m397 -86 c22 -31 23 -331 2 -380 -7 -18 -21 -58 -31
-88 -9 -30 -23 -72 -31 -92 -8 -21 -20 -55 -28 -75 -19 -52 -75 -191 -92 -228
-42 -95 -106 -232 -114 -245 -5 -8 -28 -51 -50 -95 -23 -44 -57 -107 -75 -140
-19 -33 -39 -69 -44 -80 -5 -11 -21 -37 -35 -58 -14 -21 -26 -40 -26 -43 0 -4
-13 -25 -28 -48 -15 -22 -31 -48 -35 -56 -4 -8 -29 -49 -57 -90 -27 -41 -54
-84 -60 -95 -5 -11 -29 -47 -53 -80 l-44 -60 -163 -3 c-90 -1 -167 1 -171 5
-5 5 4 22 19 39 62 72 231 282 279 348 29 39 56 76 61 81 14 17 162 236 162
240 0 2 20 33 45 69 25 37 45 68 45 71 0 3 13 26 29 52 98 161 294 559 331
673 5 14 18 50 30 80 31 80 84 246 94 293 8 33 20 34 40 5z m16 -1416 c0 -414
0 -417 -23 -457 -13 -22 -40 -49 -62 -62 -39 -22 -47 -23 -342 -23 -166 0
-304 4 -307 8 -3 5 5 19 17 33 156 174 392 468 469 584 14 22 53 78 87 125 33
47 79 115 102 152 23 37 45 65 50 62 5 -3 9 -189 9 -422z m-3530 -434 c0 -118
17 -202 49 -246 24 -34 24 -35 -29 -117 -10 -16 -25 -40 -32 -51 -13 -22 -120
-195 -148 -239 -137 -220 -176 -281 -179 -289 -2 -4 -24 -38 -48 -73 -71 -103
-71 -200 -1 -243 32 -19 51 -20 440 -20 240 0 409 -4 413 -9 3 -5 0 -13 -7
-18 -7 -4 -182 -9 -388 -11 l-374 -3 28 -24 c15 -13 40 -26 55 -30 14 -3 32
-14 39 -25 12 -19 9 -20 -95 -19 -120 1 -159 11 -202 52 -84 78 -83 321 1 572
5 17 13 44 18 60 10 36 29 89 46 130 7 17 27 66 46 110 42 102 130 274 179
350 10 17 22 37 26 45 4 8 25 42 48 75 110 162 115 162 115 23z m1694 -344 c9
-3 16 -10 16 -14 0 -13 -200 -204 -350 -334 -74 -65 -146 -128 -160 -140 -14
-12 -40 -33 -59 -47 -19 -13 -46 -33 -59 -44 -13 -11 -63 -48 -110 -82 l-87
-63 -465 0 c-256 0 -470 4 -476 8 -17 11 -34 48 -34 75 0 35 21 76 110 217 43
69 104 168 136 220 82 136 130 198 156 203 36 7 1364 8 1382 1z m1731 -37 c27
-31 101 -145 163 -250 7 -12 21 -34 30 -49 49 -77 139 -221 149 -241 23 -41
12 -117 -21 -139 -16 -11 -2414 -10 -2420 1 -3 5 20 26 52 47 171 116 386 299
626 533 71 69 137 129 145 133 9 3 292 5 630 5 l613 -2 33 -38z"/>
<path d="M4232 5588 c3 -7 22 -14 44 -16 47 -4 64 -17 64 -48 0 -13 6 -38 14
-56 7 -18 20 -55 29 -83 8 -27 21 -70 28 -93 10 -33 10 -51 2 -73 -10 -26 -8
-31 19 -54 28 -24 29 -27 14 -44 -24 -26 -20 -60 8 -72 49 -22 92 37 51 71
-30 25 -13 30 90 30 65 0 105 -4 105 -10 0 -6 -7 -13 -15 -16 -9 -4 -15 -19
-15 -35 0 -35 40 -60 68 -42 24 14 28 64 7 79 -15 11 -15 13 4 24 43 23 7 30
-149 30 -90 0 -161 4 -165 10 -11 17 49 37 145 49 154 18 165 23 195 88 30 62
65 143 65 148 0 2 -7 11 -16 19 -13 14 -49 16 -232 16 l-217 1 -21 42 c-20 41
-22 42 -73 45 -40 2 -52 0 -49 -10z"/>
<path d="M4195 5350 c-3 -6 0 -13 9 -16 22 -8 59 -1 64 14 5 15 -64 17 -73 2z"/>
<path d="M4050 5290 c0 -5 14 -10 30 -10 17 0 30 5 30 10 0 6 -13 10 -30 10
-16 0 -30 -4 -30 -10z"/>
<path d="M4240 5290 c-45 -7 -44 -7 18 -8 36 -1 62 2 62 8 0 11 -11 11 -80 0z"/>
<path d="M3985 5230 c-4 -6 5 -10 19 -10 14 0 26 5 26 10 0 6 -9 10 -19 10
-11 0 -23 -4 -26 -10z"/>
<path d="M4090 5231 c0 -9 159 -20 180 -13 6 2 8 8 4 13 -7 12 -184 12 -184 0z"/>
<path d="M4147 5174 c-17 -17 11 -24 93 -24 92 0 124 6 114 21 -6 10 -197 13
-207 3z"/>
<path d="M1766 3004 c-3 -9 -6 -26 -6 -38 0 -12 -4 -26 -9 -31 -17 -17 -41
-144 -56 -290 -11 -107 -11 -164 -4 -243 13 -129 30 -161 105 -198 53 -26 59
-26 177 -21 67 3 147 10 177 17 228 50 318 73 346 88 11 6 33 14 49 17 56 13
-7 25 -72 15 -141 -23 -423 -5 -543 35 -136 46 -187 169 -174 415 4 63 12 133
20 155 16 46 18 81 5 89 -5 3 -12 -1 -15 -10z"/>
</g>
</svg>
